PathFileType	4	(X/Y/Z)	Patient4_TMGait_0pt6_01_left_16.trc.trc
DataRate	CameraRate	NumFrames	NumMarkers	Units	OrigDataRate	OrigDataStartFrame	OrigNumFrames
83.333333333333	83.333333333333	4	33	mm	83.333333333333	36	       141
Frame#	Time	Sacral			L.Shoulder			Chest			R.Shoulder			Neck			R.ASIS			L.ASIS			R.Thigh.Superior			R.Thigh.Lateral			R.Thigh.Inferior			R.Patella			L.Thigh.Superior			L.Thigh.Lateral			L.Thigh.Inferior			L.Patella			L.Shank.Superior			L.Shank.Lateral			L.Shank.Inferior			R.Shank.Superior			R.Shank.Lateral			R.Shank.Inferior			R.Heel			R.Midfoot.Superior			R.Midfoot.Lateral			R.Toe			L.Heel			L.Midfoot.Lateral			L.Midfoot.Superior			L.Toe			L.Elbow			L.Wrist			R.Elbow			R.Wrist			
		X1	Y1	Z1	X2	Y2	Z2	X3	Y3	Z3	X4	Y4	Z4	X5	Y5	Z5	X6	Y6	Z6	X7	Y7	Z7	X8	Y8	Z8	X9	Y9	Z9	X10	Y10	Z10	X11	Y11	Z11	X12	Y12	Z12	X13	Y13	Z13	X14	Y14	Z14	X15	Y15	Z15	X16	Y16	Z16	X17	Y17	Z17	X18	Y18	Z18	X19	Y19	Z19	X20	Y20	Z20	X21	Y21	Z21	X22	Y22	Z22	X23	Y23	Z23	X24	Y24	Z24	X25	Y25	Z25	X26	Y26	Z26	X27	Y27	Z27	X28	Y28	Z28	X29	Y29	Z29	X30	Y30	Z30	X31	Y31	Z31	X32	Y32	Z32	X33	Y33	Z33	

36	19.910000000000	638.623558800521	1000.540849127794	475.542656222448	771.044630400461	1424.867472596998	274.659805234487	896.712692534290	1364.120137506372	422.352491590693	832.495352138840	1437.934974112903	603.369709599205	771.597370712744	1488.495566029259	427.719533877436	872.265079753034	932.857758262481	572.328290341535	839.667059354425	957.749373604945	300.245735948837	879.739703748837	718.264113374107	545.971222227956	783.591362054534	618.997601476338	608.806124526197	849.763352490995	553.712756868924	529.368604700253	830.412780039336	451.385285767829	541.538067256432	915.791170626052	763.928427804971	339.875423568418	848.292055992781	636.659948844555	277.039471986674	941.792465325103	572.018380096786	343.604603814564	951.250390865142	502.139795157026	352.315990010980	933.875590952500	427.623541001354	343.537354244416	860.168610749805	302.748093132027	291.992878876449	925.619796604472	199.761056582186	364.572670167314	762.390038965120	381.761729977183	546.847054575659	652.735386326218	320.700385697018	609.770116049628	649.725074574344	215.187953502525	550.731650389027	458.637464599302	104.109757691832	526.281530171967	638.198317349584	105.115015999235	559.504536119409	536.819421539833	69.888011302735	597.011765132188	735.841642468010	34.378627648802	582.486740705838	812.813837377861	37.476507913446	405.977684323928	888.765966843159	35.490705746122	326.440245153534	969.184306594616	99.138157412922	353.890708158158	1099.161562811105	50.734681309350	330.259965716946	712.050818876374	1067.159920765607	182.162805039807	749.022178901810	809.521242117975	186.190085554922	926.827321399488	1100.608229997481	713.169760921607	1167.217125923940	1091.445843710041	637.629845130832	
37	19.922000000000	638.607072349831	1001.664911740925	472.580006455573	772.242363818519	1426.449959858455	272.609795837252	896.808635710589	1365.513491088127	421.136757172525	831.321448413020	1439.211859064682	601.677004207243	771.526095635762	1489.801496385371	425.797739805087	871.648724108795	934.158341998086	570.563398508502	840.491386505267	959.155865594843	298.394784677037	883.712646667980	720.474507286672	544.588313583133	790.101092039201	619.333269558699	607.483113539769	858.784621946921	554.935636457738	528.760556919699	840.645500769778	450.760682731898	542.467246178323	914.696022095164	763.497776686540	336.951227188052	845.064049663886	636.990857692928	275.211408903062	937.849658614244	571.293238225056	341.461128908609	946.459262607787	501.646820995174	350.672189345431	928.747616798071	427.280254947951	342.101746435617	854.252924468917	302.734457389273	290.829614017617	918.947992846541	199.608190657478	363.931102355445	769.980202321264	382.356603315410	546.980875951679	657.551810075734	325.549466100833	608.976288806809	651.993341904172	219.640264485654	550.876161109461	457.345682061181	116.732376066374	525.438011645972	636.465232799024	108.123494681667	559.598905033972	533.196534901758	78.260312650249	596.405452243857	729.190939127979	33.388658989203	582.522156640370	805.555410881505	37.414934394746	405.859733920899	881.496554186123	35.414970598307	326.268605475270	961.803324948760	99.219481020560	353.647578317198	1091.850353105166	51.095117008607	330.122971870963	719.815830908522	1068.064505630912	177.629437183424	763.885274282735	811.482032067434	180.970994631417	917.625334294412	1099.591261957103	712.220994383016	1158.610935287406	1073.070481540027	640.069986652526	
38	19.934000000000	638.420514178517	1002.671792936937	469.617757665175	773.585642098680	1427.927208484186	270.595323370668	896.893746728122	1366.774069085134	420.062637931336	829.974980207877	1440.328782295800	600.078813585264	771.432560995683	1490.992918650554	423.928786140208	870.865954565362	935.283615399866	568.960855157878	841.202995275799	960.417954869369	296.688790171623	888.035156514322	722.862877758927	543.372009112811	797.119988343970	619.760960351129	606.295565727349	868.391651935485	556.410960732928	528.311225361664	851.487461682598	450.509768451823	543.350019019849	913.229168521764	762.817796135071	333.915760493651	841.444621477565	637.209079884333	273.336293131967	933.535436821219	570.465828936479	339.247980722590	941.310049629250	501.073333167008	348.873408793382	923.293076904271	426.881768688487	340.530368136123	848.010157276267	302.607463845338	289.648587947170	912.129381681935	199.404935554971	363.208430945441	778.364256661380	383.226039569946	547.067990134109	663.340506941724	330.718014188504	608.145636055125	655.096367629188	224.595296564511	550.851528730451	457.186693512791	130.402472753028	524.319329867829	635.384800857970	111.859597630024	559.512298487276	530.386702712868	87.726966355952	595.617774323382	722.883277613463	32.435147497868	582.612285837991	798.238823140582	37.344451795235	405.743391881394	874.168361208165	35.297602091176	326.101863605017	954.410693434304	99.210511650528	353.407306297357	1084.515073543675	51.279081180360	330.008418116481	727.580160279823	1069.085415101084	173.026446711578	779.098721133949	813.823488452897	175.790440110720	908.297857962694	1098.644635426653	711.295688423618	1148.644695884236	1054.344669403519	642.777777593280	
39	19.946000000000	638.038209131923	1003.512835443541	466.687092552061	775.048160413442	1429.234502826227	268.642616300052	896.961415332356	1367.844899071174	419.141351776592	828.478814727984	1441.234015886079	598.597752336020	771.329869948030	1492.033742249102	422.132284086526	869.924504256165	936.179666411257	567.524798738693	841.770481604291	961.509247757336	295.110708145948	892.615451731259	725.418255030642	542.264989363827	804.552270680158	620.315320544915	605.211028839516	878.412780845365	558.173489545154	527.947951833414	862.790931648795	450.673462658581	544.076752713397	911.460461389349	761.964794824936	330.873723871047	837.618191359817	637.344949910953	271.433430748505	929.007432124647	569.586360087292	337.038749795460	935.958873129112	500.443437147759	346.985468837548	917.662803847756	426.438705576306	338.886797875241	841.613443032857	302.393490654656	288.435429084417	905.254297424612	199.156886794959	362.436597599055	787.409131089957	384.389221441207	547.032515729060	670.018663267308	336.148115599256	607.246722030642	658.976099642315	230.012058169575	550.608416512617	458.194944250395	144.857929966820	522.931347769619	634.991324778067	116.366799725951	559.224504077813	528.498666962187	98.152647038056	594.642886196000	717.091632419115	31.675267713326	582.743724138463	790.896880025279	37.276759047253	405.626218281286	866.814517081156	35.156380731532	325.940222881117	947.040856587403	99.121871224481	353.179094989611	1077.184102112964	51.299537668046	329.916441458996	735.310803174177	1070.150210150054	168.387426644818	794.581613472005	816.491747854870	170.664587590083	898.900639689259	1097.690429426063	710.430300343835	1137.246963524025	1035.382538374814	645.738647048867	
